<svg xmlns="http://www.w3.org/2000/svg" width="1920" height="1080"><path d="M-415,-580L170,-559L719,-646Z" fill="#ecf8bf" stroke="#ecf8bf" stroke-width="1.51"/><path d="M640,1628L-561,1712L1286,1645Z" fill="#62965e" stroke="#62965e" stroke-width="1.51"/><path d="M719,-646L1271,-536L1696,-563Z" fill="#abd99e" stroke="#abd99e" stroke-width="1.51"/><path d="M1977,1594L1591,1629L2264,1584Z" fill="#096536" stroke="#096536" stroke-width="1.51"/><path d="M2101,-148L2075,76L2330,-253Z" fill="#79a96b" stroke="#79a96b" stroke-width="1.51"/><path d="M2397,891L2028,1363L2432,1280Z" fill="#116d39" stroke="#116d39" stroke-width="1.51"/><path d="M2088,564L2397,891L2443,531Z" fill="#36874e" stroke="#36874e" stroke-width="1.51"/><path d="M2397,891L2432,1280L2443,531Z" fill="#1f7741" stroke="#1f7741" stroke-width="1.51"/><path d="M2330,-253L2075,76L2474,198Z" fill="#6f9f65" stroke="#6f9f65" stroke-width="1.51"/><path d="M2088,564L2443,531L2474,198Z" fill="#4c8f56" stroke="#4c8f56" stroke-width="1.51"/><path d="M2075,76L2088,564L2474,198Z" fill="#5c9b5e" stroke="#5c9b5e" stroke-width="1.51"/><path d="M2443,531L2432,1280L2474,198Z" fill="#34804b" stroke="#34804b" stroke-width="1.51"/><path d="M719,-646L1696,-563L2487,-632Z" fill="#9ac691" stroke="#9ac691" stroke-width="1.51"/><path d="M1919,-420L2330,-253L2487,-632Z" fill="#85ab77" stroke="#85ab77" stroke-width="1.51"/><path d="M1696,-563L1919,-420L2487,-632Z" fill="#8cb582" stroke="#8cb582" stroke-width="1.51"/><path d="M2330,-253L2474,198L2487,-632Z" fill="#799e6a" stroke="#799e6a" stroke-width="1.51"/><path d="M2088,564L2016,758L2397,891Z" fill="#318b4d" stroke="#318b4d" stroke-width="1.51"/><path d="M2016,758L2028,1363L2397,891Z" fill="#1c7e42" stroke="#1c7e42" stroke-width="1.51"/><path d="M2028,1363L2264,1584L2432,1280Z" fill="#026436" stroke="#026436" stroke-width="1.51"/><path d="M1919,-420L2101,-148L2330,-253Z" fill="#83af72" stroke="#83af72" stroke-width="1.51"/><path d="M2016,758L1671,970L2028,1363Z" fill="#238545" stroke="#238545" stroke-width="1.51"/><path d="M2028,1363L1977,1594L2264,1584Z" fill="#026536" stroke="#026536" stroke-width="1.51"/><path d="M1671,970L1602,1202L2028,1363Z" fill="#218142" stroke="#218142" stroke-width="1.51"/><path d="M1616,155L1733,534L2075,76Z" fill="#69ad66" stroke="#69ad66" stroke-width="1.51"/><path d="M2075,76L1733,534L2088,564Z" fill="#58a15e" stroke="#58a15e" stroke-width="1.51"/><path d="M1681,-102L2075,76L2101,-148Z" fill="#7cb16d" stroke="#7cb16d" stroke-width="1.51"/><path d="M1919,-420L1681,-102L2101,-148Z" fill="#86b674" stroke="#86b674" stroke-width="1.51"/><path d="M1733,534L2016,758L2088,564Z" fill="#439956" stroke="#439956" stroke-width="1.51"/><path d="M1681,-102L1616,155L2075,76Z" fill="#7ab46d" stroke="#7ab46d" stroke-width="1.51"/><path d="M1591,1629L1977,1594L2028,1363Z" fill="#0e6c39" stroke="#0e6c39" stroke-width="1.51"/><path d="M1602,1202L1591,1629L2028,1363Z" fill="#17783e" stroke="#17783e" stroke-width="1.51"/><path d="M1733,534L1671,970L2016,758Z" fill="#399953" stroke="#399953" stroke-width="1.51"/><path d="M1696,-563L1681,-102L1919,-420Z" fill="#92be7b" stroke="#92be7b" stroke-width="1.51"/><path d="M1222,-302L1681,-102L1696,-563Z" fill="#98c981" stroke="#98c981" stroke-width="1.51"/><path d="M1271,-536L1222,-302L1696,-563Z" fill="#a1d290" stroke="#a1d290" stroke-width="1.51"/><path d="M1616,155L1348,393L1733,534Z" fill="#67b469" stroke="#67b469" stroke-width="1.51"/><path d="M1421,918L1671,970L1733,534Z" fill="#3b9f55" stroke="#3b9f55" stroke-width="1.51"/><path d="M1348,393L1421,918L1733,534Z" fill="#51ad62" stroke="#51ad62" stroke-width="1.51"/><path d="M1286,1645L1591,1629L1602,1202Z" fill="#1f7e44" stroke="#1f7e44" stroke-width="1.51"/><path d="M1421,918L1602,1202L1671,970Z" fill="#30934e" stroke="#30934e" stroke-width="1.51"/><path d="M1222,-302L1616,155L1681,-102Z" fill="#8dc67a" stroke="#8dc67a" stroke-width="1.51"/><path d="M1190,1122L1286,1645L1602,1202Z" fill="#2a8e4c" stroke="#2a8e4c" stroke-width="1.51"/><path d="M1162,259L1348,393L1616,155Z" fill="#77c173" stroke="#77c173" stroke-width="1.51"/><path d="M1222,-302L1162,259L1616,155Z" fill="#8bcb7c" stroke="#8bcb7c" stroke-width="1.51"/><path d="M1421,918L1190,1122L1602,1202Z" fill="#339850" stroke="#339850" stroke-width="1.51"/><path d="M1085,-265L955,94L1162,259Z" fill="#9dd586" stroke="#9dd586" stroke-width="1.51"/><path d="M1085,-265L1162,259L1222,-302Z" fill="#a0d588" stroke="#a0d588" stroke-width="1.51"/><path d="M974,1539L640,1628L1286,1645Z" fill="#418c53" stroke="#418c53" stroke-width="1.51"/><path d="M1190,1122L974,1539L1286,1645Z" fill="#379050" stroke="#379050" stroke-width="1.51"/><path d="M837,990L1190,1122L1421,918Z" fill="#49a75c" stroke="#49a75c" stroke-width="1.51"/><path d="M1074,391L837,990L1421,918Z" fill="#5ab769" stroke="#5ab769" stroke-width="1.51"/><path d="M1348,393L1074,391L1421,918Z" fill="#60ba6c" stroke="#60ba6c" stroke-width="1.51"/><path d="M758,546L837,990L1074,391Z" fill="#75c476" stroke="#75c476" stroke-width="1.51"/><path d="M892,1264L974,1539L1190,1122Z" fill="#469b58" stroke="#469b58" stroke-width="1.51"/><path d="M719,-646L996,-451L1271,-536Z" fill="#b9e1a4" stroke="#b9e1a4" stroke-width="1.51"/><path d="M1162,259L1074,391L1348,393Z" fill="#7ac677" stroke="#7ac677" stroke-width="1.51"/><path d="M996,-451L1222,-302L1271,-536Z" fill="#aedb95" stroke="#aedb95" stroke-width="1.51"/><path d="M758,546L734,898L837,990Z" fill="#6fc071" stroke="#6fc071" stroke-width="1.51"/><path d="M996,-451L1085,-265L1222,-302Z" fill="#afdc92" stroke="#afdc92" stroke-width="1.51"/><path d="M837,990L892,1264L1190,1122Z" fill="#50a55e" stroke="#50a55e" stroke-width="1.51"/><path d="M955,94L1074,391L1162,259Z" fill="#8bce7f" stroke="#8bce7f" stroke-width="1.51"/><path d="M955,94L701,150L1074,391Z" fill="#98d486" stroke="#98d486" stroke-width="1.51"/><path d="M996,-451L639,-171L1085,-265Z" fill="#b9e198" stroke="#b9e198" stroke-width="1.51"/><path d="M639,-171L955,94L1085,-265Z" fill="#b1de92" stroke="#b1de92" stroke-width="1.51"/><path d="M701,150L758,546L1074,391Z" fill="#90d182" stroke="#90d182" stroke-width="1.51"/><path d="M639,-171L701,150L955,94Z" fill="#b0de90" stroke="#b0de90" stroke-width="1.51"/><path d="M719,-646L639,-171L996,-451Z" fill="#c5e7a1" stroke="#c5e7a1" stroke-width="1.51"/><path d="M892,1264L640,1628L974,1539Z" fill="#4e975a" stroke="#4e975a" stroke-width="1.51"/><path d="M-78,1431L-561,1712L640,1628Z" fill="#7ba46b" stroke="#7ba46b" stroke-width="1.51"/><path d="M837,990L592,1119L892,1264Z" fill="#5fab63" stroke="#5fab63" stroke-width="1.51"/><path d="M592,1119L640,1628L892,1264Z" fill="#5ca260" stroke="#5ca260" stroke-width="1.51"/><path d="M394,1461L-78,1431L640,1628Z" fill="#6fa366" stroke="#6fa366" stroke-width="1.51"/><path d="M592,1119L394,1461L640,1628Z" fill="#64a463" stroke="#64a463" stroke-width="1.51"/><path d="M701,150L381,394L758,546Z" fill="#a0d788" stroke="#a0d788" stroke-width="1.51"/><path d="M734,898L592,1119L837,990Z" fill="#68b56a" stroke="#68b56a" stroke-width="1.51"/><path d="M170,-559L639,-171L719,-646Z" fill="#d7efac" stroke="#d7efac" stroke-width="1.51"/><path d="M207,872L734,898L758,546Z" fill="#81c778" stroke="#81c778" stroke-width="1.51"/><path d="M381,394L207,872L758,546Z" fill="#95d284" stroke="#95d284" stroke-width="1.51"/><path d="M207,872L592,1119L734,898Z" fill="#79bd71" stroke="#79bd71" stroke-width="1.51"/><path d="M170,-559L140,-285L639,-171Z" fill="#dff3a9" stroke="#dff3a9" stroke-width="1.51"/><path d="M639,-171L258,229L701,150Z" fill="#bce495" stroke="#bce495" stroke-width="1.51"/><path d="M258,229L381,394L701,150Z" fill="#b3e091" stroke="#b3e091" stroke-width="1.51"/><path d="M140,-285L258,229L639,-171Z" fill="#d1ec9f" stroke="#d1ec9f" stroke-width="1.51"/><path d="M124,1370L394,1461L592,1119Z" fill="#72ac69" stroke="#72ac69" stroke-width="1.51"/><path d="M207,872L124,1370L592,1119Z" fill="#7db86f" stroke="#7db86f" stroke-width="1.51"/><path d="M-52,966L124,1370L207,872Z" fill="#8ac077" stroke="#8ac077" stroke-width="1.51"/><path d="M140,-285L-24,-174L258,229Z" fill="#dcf2a5" stroke="#dcf2a5" stroke-width="1.51"/><path d="M-66,566L207,872L381,394Z" fill="#a5d88b" stroke="#a5d88b" stroke-width="1.51"/><path d="M124,1370L-78,1431L394,1461Z" fill="#7aac6c" stroke="#7aac6c" stroke-width="1.51"/><path d="M258,229L-66,566L381,394Z" fill="#b5e193" stroke="#b5e193" stroke-width="1.51"/><path d="M-52,966L-127,1200L124,1370Z" fill="#8abb76" stroke="#8abb76" stroke-width="1.51"/><path d="M-415,-580L-188,-461L170,-559Z" fill="#f7fcc4" stroke="#f7fcc4" stroke-width="1.51"/><path d="M-24,-174L-153,98L258,229Z" fill="#d7efa3" stroke="#d7efa3" stroke-width="1.51"/><path d="M-153,98L-66,566L258,229Z" fill="#c5e79b" stroke="#c5e79b" stroke-width="1.51"/><path d="M-188,-461L140,-285L170,-559Z" fill="#eff9b7" stroke="#eff9b7" stroke-width="1.51"/><path d="M-66,566L-52,966L207,872Z" fill="#9bd286" stroke="#9bd286" stroke-width="1.51"/><path d="M-127,1200L-78,1431L124,1370Z" fill="#84b372" stroke="#84b372" stroke-width="1.51"/><path d="M-188,-461L-24,-174L140,-285Z" fill="#edf8b2" stroke="#edf8b2" stroke-width="1.51"/><path d="M-153,98L-360,204L-66,566Z" fill="#cdeba1" stroke="#cdeba1" stroke-width="1.51"/><path d="M-66,566L-470,901L-52,966Z" fill="#a3d58b" stroke="#a3d58b" stroke-width="1.51"/><path d="M-467,-169L-153,98L-24,-174Z" fill="#e9f7af" stroke="#e9f7af" stroke-width="1.51"/><path d="M-188,-461L-467,-169L-24,-174Z" fill="#f3fab7" stroke="#f3fab7" stroke-width="1.51"/><path d="M-360,204L-522,532L-66,566Z" fill="#c3e6a3" stroke="#c3e6a3" stroke-width="1.51"/><path d="M-522,532L-470,901L-66,566Z" fill="#b0dc9b" stroke="#b0dc9b" stroke-width="1.51"/><path d="M-470,901L-127,1200L-52,966Z" fill="#98c782" stroke="#98c782" stroke-width="1.51"/><path d="M-127,1200L-459,1215L-78,1431Z" fill="#8db879" stroke="#8db879" stroke-width="1.51"/><path d="M-470,901L-459,1215L-127,1200Z" fill="#96c386" stroke="#96c386" stroke-width="1.51"/><path d="M-459,1215L-561,1712L-78,1431Z" fill="#88b07d" stroke="#88b07d" stroke-width="1.51"/><path d="M-467,-169L-360,204L-153,98Z" fill="#e2f3b1" stroke="#e2f3b1" stroke-width="1.51"/><path d="M-415,-580L-467,-169L-188,-461Z" fill="#f9fcc5" stroke="#f9fcc5" stroke-width="1.51"/><path d="M-467,-169L-522,532L-360,204Z" fill="#d8efb3" stroke="#d8efb3" stroke-width="1.51"/><path d="M-470,901L-561,1712L-459,1215Z" fill="#90ba88" stroke="#90ba88" stroke-width="1.51"/><path d="M-522,532L-561,1712L-470,901Z" fill="#9bc791" stroke="#9bc791" stroke-width="1.51"/></svg>