<svg xmlns="http://www.w3.org/2000/svg" width="1920" height="1080"><path d="M217,1608L-324,1666L952,1711Z" fill="#6d7d92" stroke="#6d7d92" stroke-width="1.51"/><path d="M188,-413L641,-400L1233,-527Z" fill="#b5e0bd" stroke="#b5e0bd" stroke-width="1.51"/><path d="M-527,-474L188,-413L1233,-527Z" fill="#d3edba" stroke="#d3edba" stroke-width="1.51"/><path d="M-527,-474L1233,-527L1737,-561Z" fill="#b1dcc3" stroke="#b1dcc3" stroke-width="1.51"/><path d="M2053,1481L1718,1691L2237,1514Z" fill="#21378d" stroke="#21378d" stroke-width="1.51"/><path d="M2386,-558L2276,-124L2428,243Z" fill="#7d8394" stroke="#7d8394" stroke-width="1.51"/><path d="M2123,801L2336,948L2436,499Z" fill="#2c629e" stroke="#2c629e" stroke-width="1.51"/><path d="M2428,243L2058,494L2436,499Z" fill="#46729d" stroke="#46729d" stroke-width="1.51"/><path d="M2058,494L2123,801L2436,499Z" fill="#396ea7" stroke="#396ea7" stroke-width="1.51"/><path d="M2336,948L2100,1134L2468,1289Z" fill="#204692" stroke="#204692" stroke-width="1.51"/><path d="M2100,1134L2237,1514L2468,1289Z" fill="#213a8f" stroke="#213a8f" stroke-width="1.51"/><path d="M2436,499L2336,948L2468,1289Z" fill="#1f5392" stroke="#1f5392" stroke-width="1.51"/><path d="M1737,-561L1929,-413L2386,-558Z" fill="#9a98b1" stroke="#9a98b1" stroke-width="1.51"/><path d="M1929,-413L2276,-124L2386,-558Z" fill="#938ea1" stroke="#938ea1" stroke-width="1.51"/><path d="M2276,-124L2074,-95L2428,243Z" fill="#75829d" stroke="#75829d" stroke-width="1.51"/><path d="M2074,-95L1896,137L2428,243Z" fill="#7084a8" stroke="#7084a8" stroke-width="1.51"/><path d="M1896,137L2058,494L2428,243Z" fill="#587daa" stroke="#587daa" stroke-width="1.51"/><path d="M2100,1134L2053,1481L2237,1514Z" fill="#263b97" stroke="#263b97" stroke-width="1.51"/><path d="M1929,-413L2074,-95L2276,-124Z" fill="#8c8fa7" stroke="#8c8fa7" stroke-width="1.51"/><path d="M2123,801L2100,1134L2336,948Z" fill="#2857a2" stroke="#2857a2" stroke-width="1.51"/><path d="M1896,137L1773,432L2058,494Z" fill="#5187b0" stroke="#5187b0" stroke-width="1.51"/><path d="M1541,1214L2053,1481L2100,1134Z" fill="#264ea0" stroke="#264ea0" stroke-width="1.51"/><path d="M2058,494L1773,432L2123,801Z" fill="#3b7ab0" stroke="#3b7ab0" stroke-width="1.51"/><path d="M1773,432L1640,1012L2123,801Z" fill="#2e78b2" stroke="#2e78b2" stroke-width="1.51"/><path d="M1640,1012L2100,1134L2123,801Z" fill="#2861aa" stroke="#2861aa" stroke-width="1.51"/><path d="M1929,-413L1717,-70L2074,-95Z" fill="#8c9aac" stroke="#8c9aac" stroke-width="1.51"/><path d="M1640,1012L1541,1214L2100,1134Z" fill="#2360a9" stroke="#2360a9" stroke-width="1.51"/><path d="M1717,-70L1896,137L2074,-95Z" fill="#7c95ad" stroke="#7c95ad" stroke-width="1.51"/><path d="M1541,1214L1718,1691L2053,1481Z" fill="#26489d" stroke="#26489d" stroke-width="1.51"/><path d="M1282,1576L952,1711L1718,1691Z" fill="#225b95" stroke="#225b95" stroke-width="1.51"/><path d="M1422,887L1640,1012L1773,432Z" fill="#2784b9" stroke="#2784b9" stroke-width="1.51"/><path d="M1573,202L1773,432L1896,137Z" fill="#5893b3" stroke="#5893b3" stroke-width="1.51"/><path d="M1737,-561L1717,-70L1929,-413Z" fill="#96a3ae" stroke="#96a3ae" stroke-width="1.51"/><path d="M1717,-70L1573,202L1896,137Z" fill="#6f9ab2" stroke="#6f9ab2" stroke-width="1.51"/><path d="M1541,1214L1282,1576L1718,1691Z" fill="#2856a1" stroke="#2856a1" stroke-width="1.51"/><path d="M1420,-129L1717,-70L1737,-561Z" fill="#92adb3" stroke="#92adb3" stroke-width="1.51"/><path d="M1233,-527L1420,-129L1737,-561Z" fill="#9cbcb9" stroke="#9cbcb9" stroke-width="1.51"/><path d="M1573,202L1286,632L1773,432Z" fill="#469bbb" stroke="#469bbb" stroke-width="1.51"/><path d="M1286,632L1422,887L1773,432Z" fill="#2e93bd" stroke="#2e93bd" stroke-width="1.51"/><path d="M641,-400L1070,-452L1233,-527Z" fill="#a7d7c1" stroke="#a7d7c1" stroke-width="1.51"/><path d="M1420,-129L1573,202L1717,-70Z" fill="#7ca9b6" stroke="#7ca9b6" stroke-width="1.51"/><path d="M1279,1314L1282,1576L1541,1214Z" fill="#2a68ad" stroke="#2a68ad" stroke-width="1.51"/><path d="M1420,-129L1333,140L1573,202Z" fill="#73afba" stroke="#73afba" stroke-width="1.51"/><path d="M1333,140L1286,632L1573,202Z" fill="#51a8be" stroke="#51a8be" stroke-width="1.51"/><path d="M1422,887L1541,1214L1640,1012Z" fill="#2375b3" stroke="#2375b3" stroke-width="1.51"/><path d="M1422,887L1279,1314L1541,1214Z" fill="#2374b3" stroke="#2374b3" stroke-width="1.51"/><path d="M1000,793L979,1294L1279,1314Z" fill="#3185b6" stroke="#3185b6" stroke-width="1.51"/><path d="M988,264L1286,632L1333,140Z" fill="#53b2c0" stroke="#53b2c0" stroke-width="1.51"/><path d="M1233,-527L1070,-452L1420,-129Z" fill="#9fc8bb" stroke="#9fc8bb" stroke-width="1.51"/><path d="M894,-50L1333,140L1420,-129Z" fill="#82c0bc" stroke="#82c0bc" stroke-width="1.51"/><path d="M1070,-452L894,-50L1420,-129Z" fill="#96cabc" stroke="#96cabc" stroke-width="1.51"/><path d="M1286,632L1000,793L1422,887Z" fill="#2a9bc1" stroke="#2a9bc1" stroke-width="1.51"/><path d="M1000,793L1279,1314L1422,887Z" fill="#2989bb" stroke="#2989bb" stroke-width="1.51"/><path d="M-527,-474L-28,-392L188,-413Z" fill="#eaf7b4" stroke="#eaf7b4" stroke-width="1.51"/><path d="M894,-50L988,264L1333,140Z" fill="#73c1be" stroke="#73c1be" stroke-width="1.51"/><path d="M1279,1314L979,1294L1282,1576Z" fill="#346ead" stroke="#346ead" stroke-width="1.51"/><path d="M979,1294L952,1711L1282,1576Z" fill="#366ba5" stroke="#366ba5" stroke-width="1.51"/><path d="M847,429L1000,793L1286,632Z" fill="#3badc3" stroke="#3badc3" stroke-width="1.51"/><path d="M988,264L847,429L1286,632Z" fill="#4cb5c2" stroke="#4cb5c2" stroke-width="1.51"/><path d="M-66,1604L-324,1666L217,1608Z" fill="#848595" stroke="#848595" stroke-width="1.51"/><path d="M590,1527L217,1608L952,1711Z" fill="#537699" stroke="#537699" stroke-width="1.51"/><path d="M590,1527L952,1711L979,1294Z" fill="#4674a6" stroke="#4674a6" stroke-width="1.51"/><path d="M719,805L666,1293L979,1294Z" fill="#4990b6" stroke="#4990b6" stroke-width="1.51"/><path d="M719,805L979,1294L1000,793Z" fill="#3d9abd" stroke="#3d9abd" stroke-width="1.51"/><path d="M641,-400L894,-50L1070,-452Z" fill="#a5d7bb" stroke="#a5d7bb" stroke-width="1.51"/><path d="M641,-400L727,-40L894,-50Z" fill="#a1d7b9" stroke="#a1d7b9" stroke-width="1.51"/><path d="M666,1293L590,1527L979,1294Z" fill="#507fad" stroke="#507fad" stroke-width="1.51"/><path d="M894,-50L647,112L988,264Z" fill="#7fcabd" stroke="#7fcabd" stroke-width="1.51"/><path d="M847,429L719,805L1000,793Z" fill="#47b0c2" stroke="#47b0c2" stroke-width="1.51"/><path d="M727,-40L647,112L894,-50Z" fill="#91d2bb" stroke="#91d2bb" stroke-width="1.51"/><path d="M647,112L847,429L988,264Z" fill="#6ac4bf" stroke="#6ac4bf" stroke-width="1.51"/><path d="M611,474L719,805L847,429Z" fill="#57bbc2" stroke="#57bbc2" stroke-width="1.51"/><path d="M647,112L611,474L847,429Z" fill="#6dc5be" stroke="#6dc5be" stroke-width="1.51"/><path d="M333,908L378,1326L666,1293Z" fill="#6796b1" stroke="#6796b1" stroke-width="1.51"/><path d="M333,908L666,1293L719,805Z" fill="#5aa1b8" stroke="#5aa1b8" stroke-width="1.51"/><path d="M611,474L333,908L719,805Z" fill="#60b6bf" stroke="#60b6bf" stroke-width="1.51"/><path d="M334,-123L647,112L727,-40Z" fill="#9fd8b8" stroke="#9fd8b8" stroke-width="1.51"/><path d="M641,-400L334,-123L727,-40Z" fill="#addeb7" stroke="#addeb7" stroke-width="1.51"/><path d="M237,517L333,908L611,474Z" fill="#76c2be" stroke="#76c2be" stroke-width="1.51"/><path d="M184,180L611,474L647,112Z" fill="#86cfbb" stroke="#86cfbb" stroke-width="1.51"/><path d="M378,1326L590,1527L666,1293Z" fill="#6084ab" stroke="#6084ab" stroke-width="1.51"/><path d="M184,180L237,517L611,474Z" fill="#8acfbc" stroke="#8acfbc" stroke-width="1.51"/><path d="M188,-413L334,-123L641,-400Z" fill="#c5e7b5" stroke="#c5e7b5" stroke-width="1.51"/><path d="M334,-123L184,180L647,112Z" fill="#a7dbb8" stroke="#a7dbb8" stroke-width="1.51"/><path d="M378,1326L217,1608L590,1527Z" fill="#6d82a5" stroke="#6d82a5" stroke-width="1.51"/><path d="M237,517L-9,610L333,908Z" fill="#8ac6bc" stroke="#8ac6bc" stroke-width="1.51"/><path d="M333,908L-47,1165L378,1326Z" fill="#7fa0b1" stroke="#7fa0b1" stroke-width="1.51"/><path d="M-47,1165L217,1608L378,1326Z" fill="#8290a9" stroke="#8290a9" stroke-width="1.51"/><path d="M-47,1165L-66,1604L217,1608Z" fill="#8b8ca7" stroke="#8b8ca7" stroke-width="1.51"/><path d="M-9,610L-176,828L333,908Z" fill="#90c2bb" stroke="#90c2bb" stroke-width="1.51"/><path d="M13,65L184,180L334,-123Z" fill="#bae4b6" stroke="#bae4b6" stroke-width="1.51"/><path d="M15,-155L13,65L334,-123Z" fill="#caeab4" stroke="#caeab4" stroke-width="1.51"/><path d="M188,-413L15,-155L334,-123Z" fill="#d1edb4" stroke="#d1edb4" stroke-width="1.51"/><path d="M-176,828L-47,1165L333,908Z" fill="#8db3b7" stroke="#8db3b7" stroke-width="1.51"/><path d="M-28,-392L15,-155L188,-413Z" fill="#dcf1b3" stroke="#dcf1b3" stroke-width="1.51"/><path d="M184,180L-9,610L237,517Z" fill="#99d4bb" stroke="#99d4bb" stroke-width="1.51"/><path d="M13,65L-9,610L184,180Z" fill="#a8dbb8" stroke="#a8dbb8" stroke-width="1.51"/><path d="M-343,297L-9,610L13,65Z" fill="#aeddb9" stroke="#aeddb9" stroke-width="1.51"/><path d="M-176,828L-346,946L-47,1165Z" fill="#99b6b6" stroke="#99b6b6" stroke-width="1.51"/><path d="M-351,1268L-66,1604L-47,1165Z" fill="#9497aa" stroke="#9497aa" stroke-width="1.51"/><path d="M-343,297L-328,662L-9,610Z" fill="#a7d7bc" stroke="#a7d7bc" stroke-width="1.51"/><path d="M-319,-262L-343,297L13,65Z" fill="#cfebb4" stroke="#cfebb4" stroke-width="1.51"/><path d="M-319,-262L13,65L15,-155Z" fill="#d7efb3" stroke="#d7efb3" stroke-width="1.51"/><path d="M-28,-392L-319,-262L15,-155Z" fill="#e2f4b2" stroke="#e2f4b2" stroke-width="1.51"/><path d="M-527,-474L-319,-262L-28,-392Z" fill="#eff9b5" stroke="#eff9b5" stroke-width="1.51"/><path d="M-328,662L-176,828L-9,610Z" fill="#9ecbbb" stroke="#9ecbbb" stroke-width="1.51"/><path d="M-351,1268L-324,1666L-66,1604Z" fill="#948da2" stroke="#948da2" stroke-width="1.51"/><path d="M-346,946L-351,1268L-47,1165Z" fill="#99a9b2" stroke="#99a9b2" stroke-width="1.51"/><path d="M-328,662L-346,946L-176,828Z" fill="#9fc5bd" stroke="#9fc5bd" stroke-width="1.51"/><path d="M-527,-474L-343,297L-319,-262Z" fill="#e3f4bb" stroke="#e3f4bb" stroke-width="1.51"/><path d="M-343,297L-527,-474L-328,662Z" fill="#c5e8be" stroke="#c5e8be" stroke-width="1.51"/><path d="M-527,-474L-346,946L-328,662Z" fill="#b4dec1" stroke="#b4dec1" stroke-width="1.51"/><path d="M-527,-474L-351,1268L-346,946Z" fill="#a8d6c5" stroke="#a8d6c5" stroke-width="1.51"/></svg>